<mxfile host="app.diagrams.net" modified="2024-05-22T06:00:08.703Z" agent="Mozilla/5.0 (Macintosh; Intel Mac OS X 10_15_7) AppleWebKit/537.36 (KHTML, like Gecko) Chrome/124.0.0.0 Safari/537.36" etag="7D_Pa2-eQfW0vZhhVQf2" version="24.4.0" type="github">
  <diagram name="Halaman-1" id="1rq6_nDq6EXODlIN3_2o">
    <mxGraphModel dx="841" dy="700" grid="1" gridSize="10" guides="1" tooltips="1" connect="1" arrows="1" fold="1" page="1" pageScale="1" pageWidth="827" pageHeight="1169" math="0" shadow="0">
      <root>
        <mxCell id="0" />
        <mxCell id="1" parent="0" />
        <mxCell id="S0QGJ3uBlPjsGY31r-KU-41" value="" style="rounded=1;whiteSpace=wrap;html=1;dashed=1;dashPattern=1 2;fillColor=none;" vertex="1" parent="1">
          <mxGeometry x="620" y="295" width="170" height="245" as="geometry" />
        </mxCell>
        <mxCell id="S0QGJ3uBlPjsGY31r-KU-15" value="" style="rounded=1;whiteSpace=wrap;html=1;dashed=1;dashPattern=1 2;fillColor=none;" vertex="1" parent="1">
          <mxGeometry x="60" y="170" width="540" height="370" as="geometry" />
        </mxCell>
        <mxCell id="S0QGJ3uBlPjsGY31r-KU-13" value="" style="rounded=1;whiteSpace=wrap;html=1;dashed=1;dashPattern=1 2;fillColor=none;" vertex="1" parent="1">
          <mxGeometry x="170" y="295" width="170" height="105" as="geometry" />
        </mxCell>
        <mxCell id="S0QGJ3uBlPjsGY31r-KU-1" value="MySQL&lt;br&gt;DB" style="shape=cylinder3;whiteSpace=wrap;html=1;boundedLbl=1;backgroundOutline=1;size=15;" vertex="1" parent="1">
          <mxGeometry x="230" y="450" width="60" height="80" as="geometry" />
        </mxCell>
        <mxCell id="S0QGJ3uBlPjsGY31r-KU-2" value="BE Build" style="shape=process;whiteSpace=wrap;html=1;backgroundOutline=1;" vertex="1" parent="1">
          <mxGeometry x="200" y="313" width="120" height="60" as="geometry" />
        </mxCell>
        <mxCell id="S0QGJ3uBlPjsGY31r-KU-3" value="FE Build" style="shape=process;whiteSpace=wrap;html=1;backgroundOutline=1;" vertex="1" parent="1">
          <mxGeometry x="450" y="313" width="120" height="60" as="geometry" />
        </mxCell>
        <mxCell id="S0QGJ3uBlPjsGY31r-KU-17" style="edgeStyle=orthogonalEdgeStyle;rounded=0;orthogonalLoop=1;jettySize=auto;html=1;dashed=1;dashPattern=8 8;" edge="1" parent="1" source="S0QGJ3uBlPjsGY31r-KU-4" target="S0QGJ3uBlPjsGY31r-KU-3">
          <mxGeometry relative="1" as="geometry" />
        </mxCell>
        <mxCell id="S0QGJ3uBlPjsGY31r-KU-19" style="edgeStyle=orthogonalEdgeStyle;rounded=0;orthogonalLoop=1;jettySize=auto;html=1;entryX=0.5;entryY=0;entryDx=0;entryDy=0;dashed=1;dashPattern=8 8;" edge="1" parent="1" source="S0QGJ3uBlPjsGY31r-KU-4" target="S0QGJ3uBlPjsGY31r-KU-13">
          <mxGeometry relative="1" as="geometry" />
        </mxCell>
        <mxCell id="S0QGJ3uBlPjsGY31r-KU-4" value="Software Update Services" style="shape=process;whiteSpace=wrap;html=1;backgroundOutline=1;" vertex="1" parent="1">
          <mxGeometry x="195" y="190" width="120" height="60" as="geometry" />
        </mxCell>
        <mxCell id="S0QGJ3uBlPjsGY31r-KU-6" value="" style="shape=flexArrow;endArrow=classic;startArrow=classic;html=1;rounded=0;exitX=1;exitY=0.5;exitDx=0;exitDy=0;entryX=0;entryY=0.5;entryDx=0;entryDy=0;" edge="1" parent="1" source="S0QGJ3uBlPjsGY31r-KU-2" target="S0QGJ3uBlPjsGY31r-KU-3">
          <mxGeometry width="100" height="100" relative="1" as="geometry">
            <mxPoint x="350" y="360" as="sourcePoint" />
            <mxPoint x="450" y="260" as="targetPoint" />
          </mxGeometry>
        </mxCell>
        <mxCell id="S0QGJ3uBlPjsGY31r-KU-7" value="" style="shape=flexArrow;endArrow=classic;startArrow=classic;html=1;rounded=0;exitX=0.5;exitY=1;exitDx=0;exitDy=0;entryX=0.5;entryY=0;entryDx=0;entryDy=0;entryPerimeter=0;" edge="1" parent="1" source="S0QGJ3uBlPjsGY31r-KU-2" target="S0QGJ3uBlPjsGY31r-KU-1">
          <mxGeometry width="100" height="100" relative="1" as="geometry">
            <mxPoint x="330" y="360" as="sourcePoint" />
            <mxPoint x="460" y="360" as="targetPoint" />
          </mxGeometry>
        </mxCell>
        <mxCell id="S0QGJ3uBlPjsGY31r-KU-8" value="http rest api (port : 10000)" style="text;html=1;align=center;verticalAlign=middle;whiteSpace=wrap;rounded=0;" vertex="1" parent="1">
          <mxGeometry x="340" y="310" width="90" height="30" as="geometry" />
        </mxCell>
        <mxCell id="S0QGJ3uBlPjsGY31r-KU-10" value="&lt;div&gt;&lt;span style=&quot;background-color: initial;&quot;&gt;port&lt;/span&gt;&lt;br&gt;&lt;/div&gt;3306" style="text;html=1;align=center;verticalAlign=middle;whiteSpace=wrap;rounded=0;" vertex="1" parent="1">
          <mxGeometry x="260" y="400" width="60" height="30" as="geometry" />
        </mxCell>
        <mxCell id="S0QGJ3uBlPjsGY31r-KU-14" value="Node Runtime" style="text;html=1;align=center;verticalAlign=middle;whiteSpace=wrap;rounded=0;" vertex="1" parent="1">
          <mxGeometry x="170" y="370" width="90" height="30" as="geometry" />
        </mxCell>
        <mxCell id="S0QGJ3uBlPjsGY31r-KU-20" style="edgeStyle=orthogonalEdgeStyle;rounded=0;orthogonalLoop=1;jettySize=auto;html=1;entryX=0;entryY=0.5;entryDx=0;entryDy=0;entryPerimeter=0;exitX=0;exitY=0.5;exitDx=0;exitDy=0;dashed=1;dashPattern=8 8;" edge="1" parent="1" source="S0QGJ3uBlPjsGY31r-KU-4" target="S0QGJ3uBlPjsGY31r-KU-1">
          <mxGeometry relative="1" as="geometry">
            <Array as="points">
              <mxPoint x="80" y="220" />
              <mxPoint x="80" y="490" />
            </Array>
          </mxGeometry>
        </mxCell>
        <mxCell id="S0QGJ3uBlPjsGY31r-KU-33" style="edgeStyle=orthogonalEdgeStyle;rounded=0;orthogonalLoop=1;jettySize=auto;html=1;exitX=0.5;exitY=1;exitDx=0;exitDy=0;exitPerimeter=0;entryX=0.16;entryY=0.55;entryDx=0;entryDy=0;entryPerimeter=0;" edge="1" parent="1" source="S0QGJ3uBlPjsGY31r-KU-21" target="S0QGJ3uBlPjsGY31r-KU-31">
          <mxGeometry relative="1" as="geometry">
            <mxPoint x="660" y="240" as="targetPoint" />
            <Array as="points">
              <mxPoint x="343" y="490" />
              <mxPoint x="580" y="490" />
              <mxPoint x="580" y="205" />
            </Array>
          </mxGeometry>
        </mxCell>
        <mxCell id="S0QGJ3uBlPjsGY31r-KU-21" value="process log file" style="whiteSpace=wrap;html=1;shape=mxgraph.basic.document" vertex="1" parent="1">
          <mxGeometry x="315" y="420" width="55" height="50" as="geometry" />
        </mxCell>
        <mxCell id="S0QGJ3uBlPjsGY31r-KU-24" style="edgeStyle=orthogonalEdgeStyle;rounded=0;orthogonalLoop=1;jettySize=auto;html=1;entryX=0;entryY=0.5;entryDx=0;entryDy=0;" edge="1" parent="1" source="S0QGJ3uBlPjsGY31r-KU-22" target="S0QGJ3uBlPjsGY31r-KU-2">
          <mxGeometry relative="1" as="geometry">
            <Array as="points">
              <mxPoint x="150" y="343" />
            </Array>
          </mxGeometry>
        </mxCell>
        <mxCell id="S0QGJ3uBlPjsGY31r-KU-22" value="&lt;div&gt;&lt;span style=&quot;background-color: initial;&quot;&gt;config file&lt;/span&gt;&lt;br&gt;&lt;/div&gt;" style="whiteSpace=wrap;html=1;shape=mxgraph.basic.document" vertex="1" parent="1">
          <mxGeometry x="130" y="420" width="50" height="50" as="geometry" />
        </mxCell>
        <mxCell id="S0QGJ3uBlPjsGY31r-KU-23" value="process log file" style="whiteSpace=wrap;html=1;shape=mxgraph.basic.document" vertex="1" parent="1">
          <mxGeometry x="515" y="420" width="50" height="50" as="geometry" />
        </mxCell>
        <mxCell id="S0QGJ3uBlPjsGY31r-KU-25" style="edgeStyle=orthogonalEdgeStyle;rounded=0;orthogonalLoop=1;jettySize=auto;html=1;exitX=0.75;exitY=1;exitDx=0;exitDy=0;entryX=0.5;entryY=0;entryDx=0;entryDy=0;entryPerimeter=0;" edge="1" parent="1" source="S0QGJ3uBlPjsGY31r-KU-2" target="S0QGJ3uBlPjsGY31r-KU-21">
          <mxGeometry relative="1" as="geometry">
            <Array as="points">
              <mxPoint x="290" y="390" />
              <mxPoint x="343" y="390" />
              <mxPoint x="343" y="410" />
            </Array>
          </mxGeometry>
        </mxCell>
        <mxCell id="S0QGJ3uBlPjsGY31r-KU-27" style="edgeStyle=orthogonalEdgeStyle;rounded=0;orthogonalLoop=1;jettySize=auto;html=1;exitX=0.75;exitY=1;exitDx=0;exitDy=0;entryX=0.5;entryY=0;entryDx=0;entryDy=0;entryPerimeter=0;" edge="1" parent="1" source="S0QGJ3uBlPjsGY31r-KU-3" target="S0QGJ3uBlPjsGY31r-KU-23">
          <mxGeometry relative="1" as="geometry" />
        </mxCell>
        <mxCell id="S0QGJ3uBlPjsGY31r-KU-29" style="edgeStyle=orthogonalEdgeStyle;rounded=0;orthogonalLoop=1;jettySize=auto;html=1;entryX=0.5;entryY=1;entryDx=0;entryDy=0;" edge="1" parent="1" source="S0QGJ3uBlPjsGY31r-KU-28" target="S0QGJ3uBlPjsGY31r-KU-3">
          <mxGeometry relative="1" as="geometry" />
        </mxCell>
        <mxCell id="S0QGJ3uBlPjsGY31r-KU-28" value="&lt;div&gt;&lt;span style=&quot;background-color: initial;&quot;&gt;config file&lt;/span&gt;&lt;br&gt;&lt;/div&gt;" style="whiteSpace=wrap;html=1;shape=mxgraph.basic.document" vertex="1" parent="1">
          <mxGeometry x="450" y="420" width="50" height="50" as="geometry" />
        </mxCell>
        <mxCell id="S0QGJ3uBlPjsGY31r-KU-30" value="" style="rounded=1;whiteSpace=wrap;html=1;dashed=1;dashPattern=1 2;fillColor=none;" vertex="1" parent="1">
          <mxGeometry x="420" y="295" width="170" height="105" as="geometry" />
        </mxCell>
        <mxCell id="S0QGJ3uBlPjsGY31r-KU-31" value="Internet" style="ellipse;shape=cloud;whiteSpace=wrap;html=1;" vertex="1" parent="1">
          <mxGeometry x="610" y="161" width="120" height="80" as="geometry" />
        </mxCell>
        <mxCell id="S0QGJ3uBlPjsGY31r-KU-32" style="edgeStyle=orthogonalEdgeStyle;rounded=0;orthogonalLoop=1;jettySize=auto;html=1;exitX=0.5;exitY=1;exitDx=0;exitDy=0;exitPerimeter=0;entryX=0.16;entryY=0.55;entryDx=0;entryDy=0;entryPerimeter=0;" edge="1" parent="1" source="S0QGJ3uBlPjsGY31r-KU-23" target="S0QGJ3uBlPjsGY31r-KU-31">
          <mxGeometry relative="1" as="geometry">
            <Array as="points">
              <mxPoint x="540" y="490" />
              <mxPoint x="580" y="490" />
              <mxPoint x="580" y="205" />
            </Array>
          </mxGeometry>
        </mxCell>
        <mxCell id="S0QGJ3uBlPjsGY31r-KU-35" style="edgeStyle=orthogonalEdgeStyle;rounded=0;orthogonalLoop=1;jettySize=auto;html=1;exitX=1;exitY=0.25;exitDx=0;exitDy=0;entryX=0.16;entryY=0.55;entryDx=0;entryDy=0;entryPerimeter=0;" edge="1" parent="1" source="S0QGJ3uBlPjsGY31r-KU-4" target="S0QGJ3uBlPjsGY31r-KU-31">
          <mxGeometry relative="1" as="geometry" />
        </mxCell>
        <mxCell id="S0QGJ3uBlPjsGY31r-KU-36" style="edgeStyle=orthogonalEdgeStyle;rounded=0;orthogonalLoop=1;jettySize=auto;html=1;exitX=0.75;exitY=0;exitDx=0;exitDy=0;entryX=0.16;entryY=0.55;entryDx=0;entryDy=0;entryPerimeter=0;" edge="1" parent="1" source="S0QGJ3uBlPjsGY31r-KU-2" target="S0QGJ3uBlPjsGY31r-KU-31">
          <mxGeometry relative="1" as="geometry">
            <Array as="points">
              <mxPoint x="290" y="277" />
              <mxPoint x="450" y="277" />
              <mxPoint x="450" y="205" />
            </Array>
          </mxGeometry>
        </mxCell>
        <mxCell id="S0QGJ3uBlPjsGY31r-KU-37" value="" style="image;points=[];aspect=fixed;html=1;align=center;shadow=0;dashed=0;image=img/lib/allied_telesis/storage/Datacenter_Server_Half_Rack_ToR.svg;" vertex="1" parent="1">
          <mxGeometry x="631.8" y="330" width="88.2" height="114.6" as="geometry" />
        </mxCell>
        <mxCell id="S0QGJ3uBlPjsGY31r-KU-46" style="edgeStyle=orthogonalEdgeStyle;rounded=0;orthogonalLoop=1;jettySize=auto;html=1;exitX=0.5;exitY=0;exitDx=0;exitDy=0;exitPerimeter=0;" edge="1" parent="1" source="S0QGJ3uBlPjsGY31r-KU-39">
          <mxGeometry relative="1" as="geometry">
            <mxPoint x="720" y="410" as="targetPoint" />
            <Array as="points">
              <mxPoint x="750" y="410" />
            </Array>
          </mxGeometry>
        </mxCell>
        <mxCell id="S0QGJ3uBlPjsGY31r-KU-39" value="App&lt;br&gt;Versioning&lt;br&gt;DB" style="shape=cylinder3;whiteSpace=wrap;html=1;boundedLbl=1;backgroundOutline=1;size=15;" vertex="1" parent="1">
          <mxGeometry x="720" y="430" width="60" height="80" as="geometry" />
        </mxCell>
        <mxCell id="S0QGJ3uBlPjsGY31r-KU-42" value="Software Delivery Management System" style="text;html=1;align=center;verticalAlign=middle;whiteSpace=wrap;rounded=0;" vertex="1" parent="1">
          <mxGeometry x="660" y="300" width="130" height="30" as="geometry" />
        </mxCell>
        <mxCell id="S0QGJ3uBlPjsGY31r-KU-44" value="" style="shape=flexArrow;endArrow=classic;startArrow=classic;html=1;rounded=0;exitX=0.55;exitY=0.95;exitDx=0;exitDy=0;exitPerimeter=0;" edge="1" parent="1" source="S0QGJ3uBlPjsGY31r-KU-31">
          <mxGeometry width="100" height="100" relative="1" as="geometry">
            <mxPoint x="697" y="270" as="sourcePoint" />
            <mxPoint x="676" y="290" as="targetPoint" />
          </mxGeometry>
        </mxCell>
        <mxCell id="S0QGJ3uBlPjsGY31r-KU-45" value="Server Stechoq" style="text;html=1;align=center;verticalAlign=middle;whiteSpace=wrap;rounded=0;" vertex="1" parent="1">
          <mxGeometry x="605" y="444.6" width="130" height="30" as="geometry" />
        </mxCell>
        <mxCell id="S0QGJ3uBlPjsGY31r-KU-47" value="&lt;font style=&quot;font-size: 9px;&quot;&gt;CI/CD&lt;br style=&quot;&quot;&gt;Process Here...&lt;/font&gt;" style="text;html=1;align=left;verticalAlign=middle;whiteSpace=wrap;rounded=0;" vertex="1" parent="1">
          <mxGeometry x="720" y="360" width="70" height="30" as="geometry" />
        </mxCell>
      </root>
    </mxGraphModel>
  </diagram>
</mxfile>
